<svg xmlns="http://www.w3.org/2000/svg" width="12" height="12" viewBox="0 0 12 12"> <path fill="#FFF" fill-rule="nonzero" d="M6.68 8.998l.003.064c.013.266.058.505.084.584.047.143.068.298.115.43.244.672.503 1.167.503 1.378 0 .536-.484.546-.484.546H5.099s-.484-.01-.484-.546c0-.211.26-.706.503-1.378.047-.132.068-.287.115-.43a2.769 2.769 0 0 0 .086-.648A3.032 3.032 0 0 1 3 10.061c-1.657 0-3-1.301-3-2.906 0-1.606 1.343-2.907 3-2.907.118 0 .234.007.348.02A2.822 2.822 0 0 1 3 2.906C3 1.3 4.343 0 6 0s3 1.301 3 2.907c0 .491-.126.954-.348 1.36.114-.012.23-.019.348-.019 1.657 0 3 1.301 3 2.907 0 1.605-1.343 2.906-3 2.906-.935 0-1.77-.414-2.32-1.063z"></path> </svg>