<svg width="19px" height="19px" viewBox="0 0 19 19" version="1.1" xmlns="http://www.w3.org/2000/svg" xmlns:xlink="http://www.w3.org/1999/xlink">
                        <defs></defs>
                        <g id="Homepage" stroke="none" stroke-width="1" fill="none" fill-rule="evenodd">
                            <g id="Homepage---States" transform="translate(-62.000000, -348.000000)" fill="#5C6C79">
                                <path d="M80.9994825,365.950942 C80.9994825,366.530072 80.5300719,367 79.9509425,367 L75.1093375,367 L75.1093375,359.642106 L77.5790477,359.642106 L77.9490902,356.774924 L75.1093375,356.774924 L75.1093375,354.94386 C75.1093375,354.113723 75.3401613,353.54805 76.5305077,353.54805 L78.0489758,353.547532 L78.0489758,350.982594 C77.7860645,350.947919 76.885024,350.86977 75.836484,350.86977 C73.6472815,350.86977 72.1484801,352.206063 72.1484801,354.660247 L72.1484801,356.774924 L69.6725594,356.774924 L69.6725594,359.642106 L72.1484801,359.642106 L72.1484801,367 L63.04854,367 C62.4694105,367 62,366.530072 62,365.950942 L62,349.049058 C62,348.469411 62.4694105,348 63.04854,348 L79.9509425,348 C80.5300719,348 80.9994825,348.469411 80.9994825,349.049058 L80.9994825,365.950942" id="Facebook"></path>
                            </g>
                        </g>
                    </svg>