<svg width="19px" height="19px" viewBox="0 0 19 19" version="1.1" xmlns="http://www.w3.org/2000/svg" xmlns:xlink="http://www.w3.org/1999/xlink">
                        <defs></defs>
                        <g id="Homepage" stroke="none" stroke-width="1" fill="none" fill-rule="evenodd">
                            <g id="Homepage---States" transform="translate(-153.000000, -347.000000)" fill="#5C6C79">
                                <path d="M169.267081,347 L155.194457,347 C153.98242,347 153,347.979902 153,349.189422 L153,363.272117 C153,364.481133 153.98242,365.461538 155.194457,365.461538 L169.267081,365.461538 C170.479119,365.461538 171.461538,364.481133 171.461538,363.272117 L171.461538,349.189422 C171.461538,347.979902 170.479119,347 169.267081,347 L169.267081,347 Z M166.269467,349.884316 C166.269467,349.566075 166.527786,349.307755 166.846028,349.307755 L168.576719,349.307755 C168.895464,349.307755 169.153783,349.566075 169.153783,349.884316 L169.153783,351.615511 C169.153783,351.933752 168.895464,352.192072 168.576719,352.192072 L166.846028,352.192072 C166.527786,352.192072 166.269467,351.933752 166.269467,351.615511 L166.269467,349.884316 L166.269467,349.884316 Z M162.25217,352.710221 C164.212981,352.710221 165.802679,354.296394 165.802679,356.25217 C165.802679,358.20845 164.212981,359.794119 162.25217,359.794119 C160.291862,359.794119 158.702165,358.20845 158.702165,356.25217 C158.702165,354.296394 160.291862,352.710221 162.25217,352.710221 L162.25217,352.710221 Z M169.730848,363.153783 C169.730848,363.472025 169.472528,363.730848 169.153783,363.730848 L155.307755,363.730848 C154.98901,363.730848 154.730691,363.472025 154.730691,363.153783 L154.730691,354.499827 L157.038446,354.499827 C156.737828,354.932374 156.636112,355.739559 156.636112,356.25217 C156.636112,359.34143 159.15586,361.855136 162.25217,361.855136 C165.348983,361.855136 167.868732,359.34143 167.868732,356.25217 C167.868732,355.739559 167.795717,354.944962 167.423093,354.499827 L169.730848,354.499827 L169.730848,363.153783 L169.730848,363.153783 Z" id="Instagram"></path>
                            </g>
                        </g>
                    </svg>