<svg width="20px" height="17px" viewBox="0 0 20 17" version="1.1" xmlns="http://www.w3.org/2000/svg" xmlns:xlink="http://www.w3.org/1999/xlink">
                        <defs></defs>
                        <g id="Homepage" stroke="none" stroke-width="1" fill="none" fill-rule="evenodd">
                            <g id="Homepage---States" transform="translate(-102.000000, -349.000000)" fill="#5C6C79">
                                <path d="M121.14917,349.303379 C120.36785,349.777639 119.504507,350.122556 118.581751,350.307107 C117.8467,349.502653 116.796177,349 115.633136,349 C113.403798,349 111.594565,350.854977 111.594565,353.142677 C111.594565,353.467614 111.629267,353.78256 111.698671,354.08594 C108.340994,353.912956 105.364512,352.265664 103.370727,349.756082 C103.022656,350.370201 102.823909,351.082643 102.823909,351.841354 C102.823909,353.277805 103.536876,354.546003 104.621575,355.288941 C103.960135,355.268961 103.336025,355.080729 102.790258,354.772618 L102.790258,354.823093 C102.790258,356.831074 104.183068,358.506232 106.032788,358.885325 C105.694181,358.982596 105.336646,359.031494 104.968069,359.031494 C104.707804,359.031494 104.453849,359.006256 104.20778,358.957884 C104.722,360.603072 106.213133,361.801341 107.981355,361.833414 C106.599061,362.944928 104.856076,363.60742 102.963768,363.60742 C102.63778,363.60742 102.315472,363.588491 102,363.550635 C103.787676,364.724192 105.912382,365.410344 108.193247,365.410344 C115.625249,365.410344 119.688007,359.098795 119.688007,353.623773 C119.688007,353.443428 119.684852,353.263608 119.678017,353.086944 C120.467224,352.502794 121.15285,351.773527 121.692308,350.942784 C120.968825,351.271926 120.189608,351.49486 119.372535,351.59476 C120.206959,351.082643 120.847368,350.270828 121.14917,349.303379" id="Twitter"></path>
                            </g>
                        </g>
                    </svg>